<svg width="484" height="403" viewBox="0 0 484 403" fill="none" xmlns="http://www.w3.org/2000/svg">
<g clip-path="url(#clip0_80088_68)">
<path d="M21.7954 395.247L122.533 393.945L83.4966 383.205L87.8965 373.898L112.864 370.472L106.468 368.989L89.2779 368.222L21.7954 395.247Z" fill="#172B4D"/>
<path d="M77.5105 347.716L74.4407 347.767L48.9108 338.255L77.7663 354.619L82.4732 350.733L77.5105 347.716Z" fill="#36B37E"/>
<path d="M77.5107 347.715L127.189 338.612L102.376 362.699L77.5107 347.715Z" fill="#172B4D"/>
<path d="M48.9108 338.255L98.4869 366.432L87.3336 368.478L60.013 370.472L48.9108 338.255Z" fill="white" stroke="#36B37E" stroke-width="0.633632" stroke-miterlimit="10" stroke-linejoin="round"/>
<path d="M98.4871 366.432L127.189 338.612L106.468 368.989L98.4871 366.432Z" fill="white" stroke="#36B37E" stroke-width="0.633632" stroke-miterlimit="10" stroke-linejoin="round"/>
<path d="M77.7665 354.619L90.6083 344.033L91.9385 345.107L87.8967 360.398L77.7665 354.619Z" fill="white" stroke="#36B37E" stroke-width="0.633632" stroke-miterlimit="10" stroke-linejoin="round"/>
<path d="M91.9383 345.107L103.552 361.574L98.4871 366.432L87.8965 360.398L91.9383 345.107Z" fill="white" stroke="#36B37E" stroke-width="0.633632" stroke-miterlimit="10" stroke-linejoin="round"/>
<path d="M106.469 368.989L87.3339 368.477L98.4872 366.432L106.469 368.989Z" fill="white" stroke="#36B37E" stroke-width="0.633632" stroke-miterlimit="10" stroke-linejoin="round"/>
<path d="M40.3668 361.113L36.2738 361.829L0.255699 354.567L42.2086 370.216L47.683 364.028L40.3668 361.113Z" fill="white" stroke="#36B37E" stroke-width="0.633632" stroke-miterlimit="10" stroke-linejoin="round"/>
<path d="M40.3669 361.113L104.627 338.612L76.6408 375.688L40.3669 361.113Z" fill="#C5E9DA" stroke="#36B37E" stroke-width="0.633632" stroke-miterlimit="10"/>
<path d="M0.255699 354.567L72.3431 381.415L57.8643 386.529L21.8461 394.865L0.255699 354.567Z" fill="white" stroke="#36B37E" stroke-width="0.633632" stroke-miterlimit="10" stroke-linejoin="round"/>
<path d="M72.3431 381.416L104.626 338.612L83.4964 383.205L72.3431 381.416Z" fill="white" stroke="#36B37E" stroke-width="0.633632" stroke-miterlimit="10" stroke-linejoin="round"/>
<path d="M42.2086 370.217L57.0967 353.494L59.0921 354.568L56.9433 375.688L42.2086 370.217Z" fill="#36B37E"/>
<path d="M59.0921 354.567L77.9709 373.949L72.343 381.415L56.9433 375.688L59.0921 354.567Z" fill="white" stroke="#36B37E" stroke-width="0.633632" stroke-miterlimit="10" stroke-linejoin="round"/>
<path d="M83.4964 383.205L57.8642 386.529L72.3431 381.415L83.4964 383.205Z" fill="white" stroke="#36B37E" stroke-width="0.633632" stroke-miterlimit="10" stroke-linejoin="round"/>
<mask id="mask0_80088_68" style="mask-type:alpha" maskUnits="userSpaceOnUse" x="-1" y="354" width="74" height="41">
<path d="M0.166443 354.759L72.2077 381.309L57.9414 386.223L21.9232 394.558L0.166443 354.759Z" fill="white" stroke="#36B37E" stroke-width="0.633632" stroke-miterlimit="10" stroke-linejoin="round"/>
</mask>
<g mask="url(#mask0_80088_68)">
<path d="M43.5389 382.489L35.7111 382.745L32.0786 376.455L24.5577 376.762L28.0879 383.001L20.6694 383.205L24.0973 389.496L31.6693 389.342L39.3948 389.138L43.1808 395.734L51.2644 395.632L55.255 402.383H63.6456L59.5526 395.53L55.5108 388.831L47.3249 388.984L43.5389 382.489Z" fill="#C5E9DA"/>
<path d="M39.753 376.097L36.0693 369.858L28.4974 370.268L32.0787 376.455L39.753 376.097Z" fill="#C5E9DA"/>
<path d="M51.5203 382.234L47.6832 375.739L39.753 376.097L43.539 382.49L51.5203 382.234Z" fill="#36B37E"/>
<path d="M55.7667 375.433L51.8272 368.989L43.8459 369.45L47.6831 375.74L55.7667 375.433Z" fill="#172B4D"/>
<path d="M59.7574 381.927L51.5203 382.234L55.511 388.831L63.8504 388.626L72.4457 388.421L68.1992 381.671L64.0551 375.074L55.7668 375.432L59.7574 381.927Z" fill="#36B37E"/>
<path d="M17.2416 377.069L24.5578 376.762L21.1299 370.676L28.4972 370.267L25.0182 364.182L17.7532 364.642L10.6417 365.102L13.916 371.034L6.90683 371.443L-6.10352e-05 371.801L3.12083 377.682L10.13 377.375L13.4044 383.461L20.6694 383.205L17.2416 377.069Z" fill="#36B37E"/>
<path d="M6.29282 383.717L9.56719 389.802L16.7299 389.649L13.4044 383.461L6.29282 383.717Z" fill="#36B37E"/>
<path d="M0.613831 359.835L3.73472 365.562L10.6416 365.102L7.46956 359.323L0.613831 359.835Z" fill="#36B37E"/>
<path d="M36.0693 369.858L43.8459 369.449L40.1111 363.261L36.4786 357.176L28.9577 357.738L21.5904 358.25L25.0182 364.182L32.4879 363.722L36.0693 369.858Z" fill="#36B37E"/>
<path d="M56.0225 362.238L47.9901 362.75L51.8272 368.989L60.0132 368.58L56.0225 362.238Z" fill="#36B37E"/>
<path d="M72.5991 374.665L68.3526 368.119L60.0132 368.579L64.055 375.074L72.5991 374.665Z" fill="#36B37E"/>
<path d="M16.73 389.65L20.1579 395.991L27.6276 395.888L24.0974 389.496L16.73 389.65Z" fill="#36B37E"/>
</g>
</g>
<mask id="mask1_80088_68" style="mask-type:alpha" maskUnits="userSpaceOnUse" x="364" y="0" width="68" height="127">
<rect x="364" width="68" height="127" fill="#C4C4C4"/>
</mask>
<g mask="url(#mask1_80088_68)">
<path d="M435.803 106.077L479.808 121.042H416.67L408.575 120.159L404.651 117.706L418.044 106.077H435.803Z" fill="#172B4D"/>
<path d="M430.014 78.601V76.2459C430.014 76.2459 424.863 66.0403 424.127 65.9422C423.391 65.8441 363.54 40.9189 363.54 40.9189L386.352 85.3229L395.379 94.9397L430.014 78.601Z" fill="white" stroke="#36B37E" stroke-width="0.598795" stroke-miterlimit="10"/>
<mask id="mask2_80088_68" style="mask-type:alpha" maskUnits="userSpaceOnUse" x="363" y="40" width="68" height="56">
<path d="M430.197 78.8676V76.5125C430.197 76.5125 425.046 66.3069 424.31 66.2088C423.574 66.1107 363.723 41.1855 363.723 41.1855L386.535 85.5895L395.562 95.2063L430.197 78.8676Z" fill="white" stroke="#36B37E" stroke-width="0.598795" stroke-miterlimit="10"/>
</mask>
<g mask="url(#mask2_80088_68)">
<path d="M405.043 67.0712L397.537 67.3165L394.103 61.2324L386.891 61.5759L390.276 67.5128L383.114 67.7581L386.45 73.7931L393.661 73.6459L401.118 73.4496L404.749 79.73L412.451 79.6809L416.277 86.1575H424.372L420.398 79.5828L416.523 73.1062L408.722 73.3025L405.043 67.0712Z" fill="#C5E9DA"/>
<path d="M401.462 60.9371L397.929 54.9512L390.669 55.3437L394.103 61.2315L401.462 60.9371Z" fill="#36B37E"/>
<path d="M412.745 66.7769L409.017 60.5947L401.462 60.9382L405.043 67.0713L412.745 66.7769Z" fill="#36B37E"/>
<path d="M416.768 60.2503L412.99 54.1172L405.386 54.5097L409.017 60.5938L416.768 60.2503Z" fill="#36B37E"/>
<path d="M420.643 66.531L412.745 66.7764L416.523 73.1058L424.568 72.9586L432.81 72.7623L428.738 66.2857L424.764 59.9072L416.768 60.2507L420.643 66.531Z" fill="#36B37E"/>
<path d="M379.876 61.8703L386.891 61.5759L383.604 55.6881L390.669 55.3446L387.333 49.5059L380.367 49.9474L373.547 50.389L376.687 56.0806L369.917 56.424L363.343 56.7675L366.336 62.4591L373.008 62.1647L376.148 68.0034L383.114 67.7581L379.876 61.8703Z" fill="#172B4D"/>
<path d="M369.377 68.1992L372.468 74.087L379.385 73.9398L376.148 68.0029L369.377 68.1992Z" fill="#36B37E"/>
<path d="M363.932 45.2856L366.876 50.8299L373.547 50.3883L370.457 44.7949L363.932 45.2856Z" fill="#36B37E"/>
<path d="M397.929 54.9516L405.386 54.51L401.805 48.5731L398.322 42.7344L391.11 43.2741L384.046 43.8138L387.333 49.5054L394.495 49.0638L397.929 54.9516Z" fill="#36B37E"/>
<path d="M417.013 47.5918L409.311 48.0824L412.99 54.1175L420.84 53.7249L417.013 47.5918Z" fill="#36B37E"/>
<path d="M432.908 59.5635L428.885 53.2832L420.84 53.7248L424.764 59.907L432.908 59.5635Z" fill="#36B37E"/>
<path d="M379.385 73.9392L382.672 80.0233L389.835 79.9251L386.45 73.792L379.385 73.9392Z" fill="#36B37E"/>
</g>
<path d="M416.67 77.0303L389.197 82.9181L388.511 84.7335L394.643 93.1236L416.67 77.0303Z" fill="#172B4D"/>
<path d="M440.12 84.5377L434.576 79.8274L425.991 73.3018L404.258 82.0354L403.277 87.2853L408.575 94.7923L440.12 84.5377Z" fill="white" stroke="#36B37E" stroke-width="0.598795" stroke-miterlimit="10"/>
<path d="M428.984 88.1189L445.026 82.918L435.803 106.077L422.557 106.911L428.984 88.1189Z" fill="white" stroke="#36B37E" stroke-width="0.598795" stroke-miterlimit="10"/>
<path d="M411.764 93.6635L408.575 94.792L407.104 115.743L408.575 120.159L422.557 106.911L428.984 88.1191L411.764 93.6635Z" fill="white" stroke="#36B37E" stroke-width="0.598795" stroke-miterlimit="10"/>
<path d="M454.69 79.8271L482.408 94.792L411.764 93.6635L454.69 79.8271Z" fill="#C5E9DA" stroke="#36B37E" stroke-width="0.598795" stroke-miterlimit="10"/>
<path d="M408.575 94.7922V91.3576L386.352 60.79L383.408 65.4512L404.651 117.706L407.104 115.743L408.575 94.7922Z" fill="white" stroke="#36B37E" stroke-width="0.598795" stroke-miterlimit="10"/>
<path d="M386.352 60.7898L383.408 65.4509L373.499 74.6752L381.348 58.8271L386.352 60.7898Z" fill="white" stroke="#36B37E" stroke-width="0.598795" stroke-miterlimit="10"/>
<path d="M439.335 97.1477L411.764 93.6641L440.561 94.1547L439.335 97.1477Z" fill="#172B4D"/>
<path d="M414.757 92.731L405.141 84.7334L404.749 86.1072L408.575 91.3572V94.7918L414.757 92.731Z" fill="#172B4D"/>
<path d="M402.59 112.701L400.334 115.498L397.39 112.701L382.035 66.7759L383.409 65.4512L402.59 112.701Z" fill="#C5E9DA" stroke="#36B37E" stroke-width="0.598795" stroke-miterlimit="10"/>
</g>
<defs>
<clipPath id="clip0_80088_68">
<rect width="127.445" height="64.3839" fill="white" transform="translate(0 338)"/>
</clipPath>
</defs>
</svg>
