<svg width="40" height="40" viewBox="0 0 40 40" fill="none" xmlns="http://www.w3.org/2000/svg">
<g clip-path="url(#clip0_34_2267)">
<path d="M19.4643 30C24.1609 30 27.0834 26.5392 27.0834 22.0742C27.0834 20.3908 26.8093 18.8708 24.8984 18.4142C25.3634 17.1408 26.7051 13.4575 26.7051 12.2775C26.7051 11.2383 26.0801 10.3675 24.9659 10.3675C23.1901 10.3675 21.5984 15.5117 21.1001 16.7383C20.7143 15.625 18.9076 10 17.3151 10C16.0776 10 15.4968 10.8942 15.4968 12.0192C15.4968 13.3983 16.8576 16.9725 17.3509 18.3475C17.1009 18.2575 16.8301 18.1792 16.5543 18.1792C15.6226 18.1792 14.6318 19.3158 14.6318 20.2342C14.6318 20.5817 14.8268 21.07 14.9501 21.3942C13.4818 21.785 12.9168 22.7458 12.9168 24.195C12.9126 27.015 15.6359 30 19.4643 30ZM23.4893 14.2192C23.6493 13.7383 24.3293 11.7075 24.9659 11.7075C25.3084 11.7075 25.4001 12.055 25.4001 12.3325C25.4001 13.0783 23.8643 17.2 23.5251 18.1133L22.1718 17.8792L23.4893 14.2192ZM16.7468 11.8875V11.8867C16.7468 11.4217 17.3243 10.1017 18.5893 13.7267L19.9668 17.645C19.3459 17.5942 18.8643 17.5275 18.5584 17.7C18.1243 16.575 16.7468 13.0242 16.7468 11.8875ZM16.6551 19.5308L16.6559 19.5317C17.8218 19.5317 19.3268 23.2267 19.3268 23.7267C19.3268 23.9258 19.1318 24.1717 18.9051 24.1717C18.0726 24.1717 15.8434 21.1675 15.8434 20.355C15.8468 20.0542 16.3484 19.5308 16.6551 19.5308ZM15.3151 22.5892C15.7684 22.5892 17.4759 24.945 17.4759 25.445C17.4759 25.6367 17.1693 25.7692 17.0109 25.7692C16.3701 25.7692 16.1193 25.1633 14.9776 23.7617C13.7951 24.9217 15.7934 27.1558 17.2984 27.1558C18.3368 27.1558 19.0134 26.2108 18.8109 25.515C18.9584 25.515 19.1409 25.5267 19.2768 25.4917C19.3209 26.55 19.6393 27.8117 20.9368 27.9017C20.9368 27.8667 21.0168 27.6242 21.0168 27.6125C21.0168 26.9325 20.5951 26.3392 20.5951 25.6475C20.5951 24.5417 21.4584 23.4717 22.3343 22.8467C22.6526 22.6125 23.0393 22.4675 23.4126 22.335C23.7993 22.1908 24.2093 22.0225 24.5026 21.7333C24.4584 21.2958 24.2759 20.9092 23.8301 20.9092C22.7276 20.9092 19.0301 21.0658 19.0301 19.3583C19.0301 19.0967 19.0343 18.8467 19.7234 18.8467C21.0093 18.8467 24.2734 19.1592 25.2284 19.9833C25.9484 20.6125 26.1959 24.405 23.9943 26.8075L23.9918 26.8083C22.8334 28.0583 21.3526 28.7067 19.6251 28.7067C17.2609 28.7067 15.3934 27.4333 14.4943 25.2575C13.8134 23.5625 14.6459 22.5892 15.3151 22.5892ZM20.0659 21.8858C20.4534 22.0075 20.8509 22.0433 21.2493 22.1208C20.9543 22.3317 20.6926 22.59 20.4409 22.8667C20.3293 22.535 20.1934 22.2108 20.0659 21.8858Z" fill="#505F79"/>
</g>
<defs>
<clipPath id="clip0_34_2267">
<rect width="20" height="20" fill="white" transform="translate(10 10)"/>
</clipPath>
</defs>
</svg>
