<svg width="40" height="40" viewBox="0 0 40 40" fill="none" xmlns="http://www.w3.org/2000/svg">
<g clip-path="url(#clip0_34_2251)">
<path d="M28.9994 17.4611C28.9994 16.3212 28.6334 15.2504 27.9347 14.3178C28.2008 13.4197 28.2674 12.2798 28.2008 10.9672C28.1676 10.4145 27.735 10 27.2027 10C26.9032 10 24.3746 10.0345 22.9106 11.3817C21.6463 11.1399 20.3154 11.1399 19.0178 11.3817C17.5872 10.0345 15.0585 10 14.7258 10C14.1934 10 13.7609 10.4145 13.7276 10.9672C13.6278 12.2798 13.7276 13.4197 13.9938 14.3178C13.2951 15.285 12.9291 16.3558 12.9291 17.4611C12.9291 19.8791 14.7258 22.0553 17.4541 23.0915C17.3543 23.2988 17.2877 23.5406 17.2212 23.7824C14.3265 23.4715 12.9624 20.7427 12.8958 20.639C12.6629 20.1209 12.0641 19.9136 11.565 20.19C11.0659 20.4318 10.8663 21.0535 11.1324 21.5717C11.199 21.7444 13.0289 25.4404 17.0548 25.8549V28.9637C17.0548 29.5509 17.4873 30 18.053 30H23.8755C24.4411 30 24.8737 29.5509 24.8737 28.9637V24.8532C24.8737 24.2314 24.7406 23.6442 24.5077 23.1261C27.2027 22.0553 28.9994 19.9136 28.9994 17.4611Z" fill="#505F79"/>
</g>
<defs>
<clipPath id="clip0_34_2251">
<rect width="18" height="20" fill="white" transform="translate(11 10)"/>
</clipPath>
</defs>
</svg>
