<svg width="40" height="40" viewBox="0 0 40 40" fill="none" xmlns="http://www.w3.org/2000/svg">
<g clip-path="url(#clip0_34_2257)">
<path d="M23.6444 13.0342C20.1556 13.0342 17.2886 15.8618 17.2886 19.379V29.31C17.2886 29.6894 17.5995 29.9997 17.9794 29.9997H21.5718C21.9518 29.9997 22.2627 29.6894 22.2627 29.31V19.6549C22.2627 18.8962 22.8844 18.2756 23.6444 18.2756C24.4043 18.2756 25.0261 18.8962 25.0261 19.6549V29.31C25.0261 29.6894 25.3369 29.9997 25.7169 29.9997H29.3093C29.6893 29.9997 30.0001 29.6894 30.0001 29.31V19.379C30.0001 15.8962 27.1677 13.0342 23.6444 13.0342Z" fill="#505F79"/>
<path d="M14.2832 16.2764H10.6908C10.3109 16.2764 10 16.5867 10 16.966V29.3108C10 29.6902 10.3109 30.0005 10.6908 30.0005H14.2832C14.6632 30.0005 14.9741 29.6902 14.9741 29.3108V16.966C14.9741 16.5867 14.6632 16.2764 14.2832 16.2764Z" fill="#505F79"/>
<path d="M12.487 10C11.1054 10 10 11.1034 10 12.4828C10 13.8621 11.1054 14.9655 12.487 14.9655C13.8687 14.9655 14.9741 13.8621 14.9741 12.4828C14.9741 11.1034 13.8687 10 12.487 10Z" fill="#505F79"/>
</g>
<defs>
<clipPath id="clip0_34_2257">
<rect width="20" height="20" fill="white" transform="translate(10 10)"/>
</clipPath>
</defs>
</svg>
