<svg width="128" height="128" viewBox="0 0 128 128" fill="none" xmlns="http://www.w3.org/2000/svg">
<g filter="url(#filter0_d_80081_64)">
<circle cx="64" cy="48" r="40" fill="white"/>
</g>
<g clip-path="url(#clip0_80081_64)">
<path d="M76.2702 46.8957H85.7041C85.8515 46.8957 85.9989 46.7486 85.9989 46.6014C85.3355 36.7419 78.1865 28.5747 68.7526 26.5145C68.5315 26.4409 68.3104 26.7352 68.5315 26.9559C72.9536 31.8857 75.7543 38.9492 76.0491 46.675C75.9754 46.8221 76.1228 46.8957 76.2702 46.8957Z" fill="#091E42"/>
<path d="M64.1841 26C64.1104 26 64.0367 26 63.963 26C63.8893 26 63.8156 26 63.7419 26C58.0668 30.3411 54.5292 38.0669 54.1606 46.602C54.1606 46.7492 54.308 46.8963 54.4555 46.8963H73.4705C73.6179 46.8963 73.7653 46.7492 73.7653 46.602C73.4705 38.0669 69.8591 30.3411 64.1841 26Z" fill="#36B37E"/>
<path d="M54.4555 49.1035C54.308 49.1035 54.1606 49.2507 54.1606 49.3978C54.5292 58.0065 58.0668 65.6587 63.7419 69.9998C63.8156 69.9998 63.8893 69.9998 63.963 69.9998C64.0367 69.9998 64.1104 69.9998 64.1841 69.9998C69.8591 65.6587 73.3968 57.9329 73.7653 49.3978C73.7653 49.2507 73.6179 49.1035 73.4705 49.1035H54.4555Z" fill="#091E42"/>
<path d="M75.9754 49.3243C75.6806 57.05 72.9536 64.1136 68.5315 69.0433C68.3841 69.2641 68.5315 69.5584 68.7526 69.4848C78.1864 67.4246 85.4092 59.2574 85.9988 49.3978C85.9988 49.2507 85.8514 49.1035 85.704 49.1035H76.2702C76.1228 49.1035 75.9754 49.2507 75.9754 49.3243Z" fill="#36B37E"/>
<path d="M51.7282 49.1035H42.2943C42.1469 49.1035 41.9995 49.2507 41.9995 49.3978C42.5891 59.2574 49.8119 67.4246 59.2457 69.4848C59.4668 69.5584 59.688 69.2641 59.4668 69.0433C54.971 64.1136 52.2441 57.05 51.9493 49.3243C52.023 49.2507 51.8756 49.1035 51.7282 49.1035Z" fill="#36B37E"/>
<path d="M52.023 46.675C52.3178 38.9492 55.0447 31.8857 59.4668 26.9559C59.6143 26.7352 59.4668 26.4409 59.2457 26.5145C49.8119 28.5747 42.5891 36.7419 41.9995 46.6014C41.9995 46.7486 42.1469 46.8957 42.2943 46.8957H51.7282C51.8756 46.8957 52.023 46.8221 52.023 46.675Z" fill="#091E42"/>
</g>
<defs>
<filter id="filter0_d_80081_64" x="0" y="0" width="128" height="128" filterUnits="userSpaceOnUse" color-interpolation-filters="sRGB">
<feFlood flood-opacity="0" result="BackgroundImageFix"/>
<feColorMatrix in="SourceAlpha" type="matrix" values="0 0 0 0 0 0 0 0 0 0 0 0 0 0 0 0 0 0 127 0" result="hardAlpha"/>
<feOffset dy="16"/>
<feGaussianBlur stdDeviation="12"/>
<feColorMatrix type="matrix" values="0 0 0 0 0.145573 0 0 0 0 0.185183 0 0 0 0 0.5375 0 0 0 0.08 0"/>
<feBlend mode="normal" in2="BackgroundImageFix" result="effect1_dropShadow_80081_64"/>
<feBlend mode="normal" in="SourceGraphic" in2="effect1_dropShadow_80081_64" result="shape"/>
</filter>
<clipPath id="clip0_80081_64">
<rect width="44" height="44" fill="white" transform="translate(41.9995 26)"/>
</clipPath>
</defs>
</svg>
