<svg width="40" height="40" viewBox="0 0 40 40" fill="none" xmlns="http://www.w3.org/2000/svg">
<g clip-path="url(#clip0_34_2271)">
<g clip-path="url(#clip1_34_2271)">
<path d="M29.7662 10.37C29.4329 9.97134 28.8662 9.87167 28.4329 10.1707L26.4996 11.4996C25.5996 10.5361 24.3329 10.0046 22.9662 10.0046C20.2662 10.0046 18.0329 12.1972 18.0329 14.9215C18.0329 15.3202 18.0662 15.6856 18.1662 16.0511C15.8329 15.5527 14.4329 13.8584 13.8996 10.8019C13.8329 10.4032 13.5329 10.1042 13.1329 10.0046C12.7662 9.90489 12.3662 10.071 12.1329 10.37C12.0662 10.4365 6.56622 18.0776 14.5329 24.556C13.7662 26.1839 11.4662 27.5793 10.5662 28.0444C10.1329 28.2437 9.93289 28.7088 10.0329 29.1739C10.1329 29.6391 10.5329 29.9381 10.9996 29.9381H12.7329C22.8662 29.9381 27.4662 24.9215 27.5662 13.6923L29.6662 11.6989C30.0662 11.3667 30.0996 10.7687 29.7662 10.37Z" fill="#505F79"/>
</g>
</g>
<defs>
<clipPath id="clip0_34_2271">
<rect width="20" height="20" fill="white" transform="translate(10 10)"/>
</clipPath>
<clipPath id="clip1_34_2271">
<rect width="20" height="19.9667" fill="white" transform="translate(10 9.97168)"/>
</clipPath>
</defs>
</svg>
